<svg width="20.000000" height="19.000000" viewBox="0 0 20 19" fill="none" xmlns="http://www.w3.org/2000/svg" xmlns:xlink="http://www.w3.org/1999/xlink">
	<desc>
			Created with Pixso.
	</desc>
	<defs/>
	<path id="Vector" d="M13.68 -0.5C16.89 -0.5 19.5 2.16 19.5 5.44L19.5 12.55C19.5 15.83 16.89 18.5 13.68 18.5L5.31 18.5C2.1 18.5 -0.5 15.83 -0.5 12.55L-0.5 5.44C-0.5 2.16 2.1 -0.5 5.31 -0.5L13.68 -0.5ZM13.68 0.98L5.31 0.98C2.9 0.98 0.95 2.98 0.95 5.44L0.95 12.55C0.95 15.01 2.9 17.01 5.31 17.01L13.68 17.01C16.09 17.01 18.04 15.01 18.04 12.55L18.04 12.27L14.84 12.27C13 12.27 11.51 10.75 11.51 8.86C11.51 7.04 12.91 5.56 14.66 5.46L14.85 5.45L18.04 5.45L18.04 5.44C18.04 3.05 16.2 1.1 13.89 0.99L13.68 0.98ZM18.04 6.94L14.85 6.94C13.81 6.94 12.96 7.8 12.96 8.86C12.96 9.88 13.73 10.71 14.7 10.78L14.85 10.79L18.04 10.79L18.04 6.94ZM15.29 8.06C15.69 8.06 16.02 8.39 16.02 8.8C16.02 9.18 15.74 9.49 15.39 9.54L15.29 9.55L14.99 9.55C14.59 9.55 14.26 9.21 14.26 8.8C14.26 8.43 14.53 8.12 14.89 8.07L14.99 8.06L15.29 8.06ZM9.85 3.99C10.25 3.99 10.58 4.33 10.58 4.74C10.58 5.11 10.3 5.42 9.95 5.47L9.85 5.48L4.62 5.48C4.22 5.48 3.89 5.15 3.89 4.74C3.89 4.36 4.16 4.05 4.52 4L4.62 3.99L9.85 3.99Z" fill="#ABBBC2" fill-opacity="1.000000" fill-rule="nonzero"/>
</svg>
